<?xml version="1.0" standalone="no"?>
<!DOCTYPE svg PUBLIC "-//W3C//DTD SVG 20010904//EN"
 "http://www.w3.org/TR/2001/REC-SVG-20010904/DTD/svg10.dtd">
<svg version="1.0" xmlns="http://www.w3.org/2000/svg"
 width="1417.000000pt" height="900.000000pt" viewBox="0 0 1417.000000 900.000000"
 preserveAspectRatio="xMidYMid meet">

<g transform="translate(0.000000,900.000000) scale(0.100000,-0.100000)"
fill="#000000" stroke="none">
<path d="M240 4460 l0 -4320 6895 0 6895 0 0 4320 0 4320 -6895 0 -6895 0 0
-4320z m13720 0 l0 -4250 -6825 0 -6825 0 0 4250 0 4250 6825 0 6825 0 0
-4250z"/>
<path d="M7670 4480 l0 -4120 1035 0 1035 0 0 4120 0 4120 -1035 0 -1035 0 0
-4120z m2000 0 l0 -4050 -965 0 -965 0 0 4050 0 4050 965 0 965 0 0 -4050z"/>
<path d="M7824 8430 c-19 -7 -22 -18 -26 -97 -2 -48 -2 -136 0 -194 4 -98 6
-108 27 -119 29 -16 71 5 114 57 54 66 66 112 54 209 -11 92 -26 117 -80 140
-36 16 -58 17 -89 4z m89 -60 c21 -17 26 -31 32 -93 5 -54 3 -82 -8 -107 -16
-39 -64 -100 -78 -100 -5 0 -9 70 -9 160 0 149 1 160 19 160 10 0 30 -9 44
-20z"/>
<path d="M8440 8190 c-63 -63 -32 -180 47 -180 20 0 23 -5 23 -35 0 -23 -6
-37 -19 -44 -16 -9 -21 -6 -31 19 -13 32 -37 40 -46 15 -10 -24 17 -76 43 -86
29 -11 66 3 87 33 12 17 16 48 16 132 0 108 0 109 -30 137 -35 34 -62 37 -90
9z m54 -36 c28 -11 18 -94 -10 -94 -22 0 -36 46 -22 75 13 28 11 27 32 19z"/>
<path d="M8253 8193 c-30 -6 -72 -50 -81 -87 -21 -75 51 -119 111 -68 13 12
20 13 29 4 17 -17 65 -15 71 2 6 15 -6 29 -35 39 -9 3 -20 21 -23 41 -6 28
-39 80 -48 75 -1 -1 -12 -4 -24 -6z m17 -76 c0 -25 -32 -62 -43 -50 -12 11 -8
36 10 55 22 24 33 23 33 -5z"/>
<path d="M8024 8177 c-3 -8 -4 -45 -2 -83 3 -62 5 -69 25 -72 18 -3 23 3 28
30 8 39 22 60 53 77 43 23 20 57 -27 39 -17 -6 -28 -4 -41 7 -20 19 -29 19
-36 2z"/>
<path d="M7850 7817 c-53 -35 -70 -73 -71 -160 -1 -44 5 -87 13 -104 28 -60
124 -79 182 -37 50 37 22 78 -30 43 -36 -24 -65 -24 -94 -1 -19 15 -22 27 -21
91 1 81 15 114 57 133 19 9 30 9 45 0 42 -26 62 -6 39 39 -15 27 -77 25 -120
-4z"/>
<path d="M8293 7714 c-3 -8 -1 -20 5 -26 16 -16 42 -2 42 22 0 24 -38 28 -47
4z"/>
<path d="M8066 7678 c-22 -31 -21 -120 2 -147 9 -12 34 -24 54 -28 32 -5 41
-1 68 25 25 25 30 38 30 77 0 37 -5 51 -26 70 -36 34 -106 35 -128 3z m97 -45
c13 -7 8 -60 -8 -73 -8 -6 -23 -9 -35 -5 -16 5 -20 15 -20 51 0 43 1 44 28 38
15 -4 30 -9 35 -11z"/>
<path d="M8390 7626 c0 -82 15 -110 44 -81 9 9 16 26 16 39 0 26 25 64 36 53
4 -4 9 -32 12 -63 4 -49 7 -55 26 -52 28 4 34 65 11 124 -18 48 -34 58 -72 43
-19 -7 -29 -7 -31 0 -2 6 -12 11 -23 11 -17 0 -19 -8 -19 -74z"/>
<path d="M8311 7646 c-7 -8 -11 -35 -9 -63 3 -40 6 -48 23 -48 18 0 20 7 20
59 0 61 -12 79 -34 52z"/>
<path d="M7989 7418 c-1 -7 -2 -42 -2 -78 l-2 -65 -50 -6 c-27 -3 -51 -5 -52
-4 -2 1 -6 30 -9 64 -6 56 -9 62 -28 59 -18 -3 -21 -10 -20 -48 1 -94 17 -245
27 -252 25 -16 37 5 37 62 0 65 5 70 70 70 l39 0 6 -55 c4 -30 13 -62 20 -72
13 -16 15 -17 30 -2 13 13 14 24 6 60 -5 24 -12 80 -16 124 -10 137 -15 155
-36 155 -10 0 -19 -6 -20 -12z"/>
<path d="M8911 7346 c-22 -26 -13 -244 11 -273 12 -15 52 -17 78 -3 19 10 43
67 34 81 -11 19 -42 9 -48 -16 -9 -34 -22 -31 -30 6 -13 67 -8 87 22 91 38 4
38 42 0 46 -23 3 -27 8 -30 39 -3 40 -18 52 -37 29z"/>
<path d="M8574 7296 c-39 -17 -64 -69 -64 -135 0 -42 5 -57 25 -76 37 -38 108
-31 142 14 31 40 -4 67 -42 31 -34 -32 -69 -24 -73 18 -3 31 -2 32 33 32 43 0
85 36 85 73 0 44 -54 66 -106 43z m51 -57 c-8 -12 -45 -12 -45 0 0 10 30 20
43 14 4 -3 5 -9 2 -14z"/>
<path d="M8135 7275 c-29 -28 -34 -98 -10 -144 16 -32 69 -61 112 -61 33 0 73
25 73 46 0 19 -28 30 -43 15 -15 -15 -58 -13 -79 3 -26 19 -23 21 23 21 50 0
79 30 79 81 0 42 -30 64 -88 64 -32 0 -49 -6 -67 -25z m105 -44 c0 -10 -7 -22
-16 -25 -22 -8 -64 4 -64 18 0 20 11 26 47 26 26 0 33 -4 33 -19z"/>
<path d="M8362 7278 c-13 -13 -17 -173 -6 -202 3 -9 14 -16 25 -16 13 0 20 10
24 38 11 76 29 116 58 130 15 7 27 19 27 26 0 22 -30 28 -60 12 -26 -12 -29
-12 -33 5 -6 22 -18 24 -35 7z"/>
<path d="M9101 7274 c-29 -21 -51 -72 -51 -119 0 -52 45 -99 95 -99 54 0 85
38 85 106 0 45 -4 54 -39 89 -43 43 -56 47 -90 23z m67 -66 c17 -17 15 -83 -3
-98 -12 -10 -20 -9 -40 4 -25 17 -30 40 -19 84 7 24 42 30 62 10z"/>
<path d="M7836 6924 c-52 -53 -25 -114 59 -135 24 -6 49 -17 56 -25 19 -23 0
-53 -40 -65 -32 -10 -42 -9 -64 6 -46 30 -65 -5 -24 -43 28 -27 68 -28 123 -3
63 29 82 101 38 145 -8 9 -40 23 -70 32 -30 8 -54 21 -54 28 0 23 27 38 62 34
25 -2 33 1 36 16 9 44 -80 51 -122 10z"/>
<path d="M8793 6930 c-41 -17 -51 -48 -59 -181 l-7 -127 25 -16 c20 -13 63
-18 204 -23 176 -5 180 -5 207 17 l29 23 -4 133 c-1 73 -7 137 -13 143 -5 5
-73 14 -150 20 -77 7 -156 14 -175 16 -19 3 -45 0 -57 -5z m131 -56 c12 -5 16
-21 16 -75 0 -68 -5 -80 -27 -58 -14 14 -33 3 -33 -19 0 -19 58 -82 76 -82 14
0 94 76 94 89 0 5 -7 14 -15 21 -12 10 -18 10 -30 0 -13 -11 -15 -4 -15 55 l0
68 53 -7 c28 -3 62 -6 75 -6 22 0 23 -1 20 -112 l-3 -113 -55 -3 c-30 -2 -111
-1 -179 3 l-123 7 7 112 c4 61 9 114 12 119 5 8 105 10 127 1z"/>
<path d="M8043 6919 c-7 -7 -9 -51 -6 -127 4 -99 8 -120 24 -134 11 -9 28 -14
40 -11 25 7 53 48 45 68 -7 20 -33 19 -45 -2 -8 -14 -10 -8 -11 30 0 39 3 47
19 47 23 0 48 28 35 40 -5 4 -20 10 -34 12 -21 2 -26 10 -30 42 -5 41 -18 54
-37 35z"/>
<path d="M8537 6923 c-10 -9 -8 -172 3 -217 14 -63 56 -74 94 -23 18 25 19 29
4 43 -14 14 -17 14 -31 0 -14 -14 -16 -14 -21 0 -3 9 -6 33 -6 54 0 38 1 39
38 42 29 2 37 7 37 23 0 16 -8 21 -37 23 -35 3 -38 6 -38 33 0 21 -5 29 -18
29 -10 0 -22 -3 -25 -7z"/>
<path d="M8195 6803 c-27 -40 -32 -109 -10 -133 19 -21 69 -27 80 -9 4 6 19 7
36 4 36 -8 50 17 25 44 -9 10 -16 29 -16 44 0 14 -4 37 -10 51 -8 22 -16 26
-49 26 -31 0 -42 -5 -56 -27z m65 -44 c0 -25 -17 -59 -30 -59 -14 0 -12 54 2
68 18 18 28 15 28 -9z"/>
<path d="M8377 6823 c-3 -5 -2 -44 1 -88 6 -73 9 -80 30 -83 19 -3 22 1 22 27
0 41 17 82 40 98 11 8 20 21 20 29 0 21 -27 29 -46 14 -11 -10 -18 -10 -26 -2
-14 14 -35 16 -41 5z"/>
<path d="M9780 4480 l0 -4120 2040 0 2040 0 0 4120 0 4120 -2040 0 -2040 0 0
-4120z m4010 3716 l0 -333 -31 -7 c-17 -3 -904 -6 -1970 -6 l-1939 0 0 340 0
340 1970 0 1970 0 0 -334z m0 -3243 l0 -2836 -1037 6 c-570 4 -1456 7 -1970 7
l-933 0 0 2825 0 2825 1953 3 c1073 1 1960 3 1970 5 16 2 17 -139 17 -2835z
m-1037 -2900 l1037 -6 0 -809 0 -808 -1970 0 -1970 0 0 815 0 815 933 0 c514
0 1400 -3 1970 -7z"/>
<path d="M9985 8433 c-11 -3 -23 -10 -27 -17 -9 -14 -10 -296 -1 -400 5 -71 8
-77 27 -74 20 3 21 9 21 130 l0 127 42 6 c23 3 60 19 83 34 75 50 97 109 65
171 -15 30 -16 30 -103 29 -48 -1 -96 -4 -107 -6z m173 -72 c7 -44 -81 -111
-145 -111 -14 0 -19 121 -6 134 4 4 39 5 78 4 65 -3 70 -5 73 -27z"/>
<path d="M10523 8423 c-10 -4 -13 -56 -13 -217 0 -194 2 -214 18 -229 56 -51
169 21 160 101 -5 42 -40 37 -49 -8 -8 -36 -31 -60 -61 -60 -16 0 -18 11 -18
119 l0 120 43 3 c34 2 42 7 42 23 0 16 -8 21 -42 23 l-43 3 0 59 c0 57 -9 73
-37 63z"/>
<path d="M11912 8398 c3 -21 9 -23 76 -26 39 -2 73 -4 73 -5 1 -1 4 -90 8
-197 6 -186 7 -195 26 -195 19 0 20 7 20 198 l0 199 70 -2 c106 -3 107 -3 103
23 -3 22 -5 22 -191 25 l-188 2 3 -22z"/>
<path d="M12434 8288 c3 -29 9 -102 12 -163 7 -113 15 -138 40 -128 9 3 14 20
14 49 0 40 2 44 24 44 27 0 41 -14 50 -52 6 -27 38 -39 50 -20 10 17 -19 85
-45 104 l-27 20 20 34 c11 19 17 41 14 49 -10 27 -34 16 -58 -26 -19 -33 -24
-37 -29 -22 -4 10 -8 34 -8 53 -2 64 -20 110 -43 110 -19 0 -20 -4 -14 -52z"/>
<path d="M11399 8315 c-55 -30 -97 -191 -66 -252 18 -33 70 -63 111 -63 35 0
106 37 106 55 0 24 -20 28 -60 10 -64 -29 -120 -2 -120 57 0 21 4 29 13 25 8
-3 38 -8 68 -12 74 -9 92 6 93 73 1 45 -3 55 -33 86 -38 39 -68 45 -112 21z
m80 -59 c14 -15 21 -33 19 -48 -3 -21 -7 -23 -53 -20 -27 2 -52 6 -54 8 -7 7
9 53 25 68 21 22 37 20 63 -8z"/>
<path d="M10922 8202 c3 -122 -6 -153 -54 -173 -21 -9 -35 -9 -53 -1 -24 11
-24 15 -27 134 -3 119 -4 123 -25 126 -23 3 -23 2 -23 -127 0 -123 1 -131 24
-158 20 -23 32 -28 69 -28 56 0 92 19 120 64 19 31 22 50 21 126 -1 114 -8
145 -34 145 -19 0 -20 -6 -18 -108z"/>
<path d="M11063 8303 c-10 -3 -13 -42 -13 -143 0 -112 3 -140 15 -150 24 -20
39 3 36 56 -4 78 50 163 112 178 18 4 27 13 27 26 0 33 -62 27 -104 -10 l-35
-31 -3 37 c-3 37 -12 47 -35 37z"/>
<path d="M11635 8280 c-24 -26 -24 -79 -2 -113 10 -15 34 -31 57 -38 41 -12
49 -26 28 -47 -18 -18 -49 -14 -74 9 -24 22 -54 20 -54 -4 0 -8 11 -26 25 -41
52 -56 165 -16 165 58 0 39 -22 61 -68 71 -23 5 -36 15 -43 32 -16 42 8 57 42
27 20 -18 39 -11 39 15 0 47 -81 69 -115 31z"/>
<path d="M12970 8283 c0 -5 -1 -69 -3 -143 -2 -131 -1 -135 19 -138 20 -3 22
3 29 82 6 81 9 87 41 116 35 30 86 41 99 20 4 -6 12 -56 18 -111 10 -93 12
-100 31 -97 20 3 21 8 18 83 -4 101 -17 150 -45 170 -29 21 -86 19 -123 -4
l-32 -19 -11 24 c-10 22 -41 34 -41 17z"/>
<path d="M12717 8258 c-40 -31 -60 -139 -35 -193 22 -49 103 -70 163 -43 32
14 32 55 0 50 -11 -2 -35 -6 -53 -9 -23 -4 -39 0 -52 12 -34 30 -25 43 25 38
39 -5 47 -2 75 25 58 58 23 132 -63 132 -24 0 -51 -6 -60 -12z m99 -53 c9 -23
-15 -45 -47 -45 -32 0 -43 12 -34 40 8 25 72 29 81 5z"/>
<path d="M10184 8235 c-9 -22 22 -53 37 -38 15 15 7 47 -14 51 -9 2 -20 -4
-23 -13z"/>
<path d="M10307 8230 c-45 -35 -62 -151 -32 -210 30 -58 139 -76 169 -28 17
28 -7 45 -38 28 -34 -17 -84 2 -92 37 -8 31 3 112 17 129 13 16 45 18 54 4 9
-15 35 -12 42 5 9 24 -26 55 -62 55 -18 0 -44 -9 -58 -20z"/>
<path d="M12245 8188 c-53 -42 -71 -127 -35 -166 30 -32 68 -38 103 -18 28 16
30 15 43 -1 11 -16 14 -16 28 -3 14 13 14 20 1 55 -8 22 -14 57 -15 77 0 27
-7 42 -26 57 -34 27 -64 27 -99 -1z m73 -69 c4 -47 -28 -89 -55 -73 -26 16
-27 56 -2 88 29 37 53 31 57 -15z"/>
<path d="M10176 8145 c-3 -9 -6 -56 -6 -105 0 -64 4 -89 13 -93 31 -12 38 9
35 109 -3 82 -6 99 -19 102 -9 2 -19 -4 -23 -13z"/>
</g>
</svg>
