<svg version="1.0" xmlns="http://www.w3.org/2000/svg" width="1417.000000pt" height="900.000000pt" viewBox="0 0 1417.000000 900.000000" preserveAspectRatio="xMidYMid meet">

<g transform="translate(0.000000,900.000000) scale(0.100000,-0.100000)" fill="#000000" stroke="none">
<path d="M587 8964 c-13 -14 -7 -38 31 -116 20 -43 43 -78 51 -78 12 0 13 -60
6 -412 -4 -227 -6 -420 -5 -428 1 -8 4 -1050 6 -2315 4 -2932 25 -5177 49
-5290 4 -16 7 -41 8 -55 2 -27 29 -39 50 -22 14 12 2451 9 2689 -3 104 -5 162
-5 170 2 19 15 720 16 729 2 5 -9 41 -8 133 0 154 13 469 14 671 1 138 -9 151
-9 163 8 12 16 37 17 315 14 166 -2 343 -7 392 -13 107 -10 209 -12 218 -2 11
11 552 13 667 2 87 -7 107 -7 116 5 9 12 245 16 1620 25 885 7 2034 16 2554
21 1250 13 2297 13 2305 0 8 -12 85 -2 102 14 18 17 30 156 13 156 -17 0 -7
2334 15 3625 29 1686 40 2843 37 3770 -2 517 -7 944 -11 948 -5 5 -289 12
-632 17 -343 5 -928 14 -1299 20 -371 6 -1064 13 -1540 16 -476 2 -1027 6
-1225 9 -198 3 -774 9 -1280 15 -506 5 -1273 14 -1705 19 -432 6 -1296 12
-1920 16 -1018 5 -1587 10 -3045 30 -242 4 -444 3 -448 -1z m823 -59 c333 -8
893 -17 1245 -20 352 -3 849 -7 1105 -10 948 -11 1370 -15 2880 -26 850 -6
1591 -14 1648 -18 l103 -6 0 -235 c-1 -129 -4 -325 -7 -435 l-7 -200 -3823 -3
-3824 -2 0 429 c0 279 -4 440 -11 458 -5 15 -22 40 -37 56 l-26 27 75 0 c41 0
346 -7 679 -15z m8615 -91 c94 -3 721 -10 1395 -15 674 -5 1449 -12 1723 -15
l498 -6 -6 -927 c-5 -836 -11 -1352 -31 -2933 -4 -318 -10 -496 -16 -492 -21
13 -225 444 -261 549 -41 123 -56 201 -94 485 -23 177 -26 239 -33 680 -8 540
-8 548 -82 765 -93 277 -199 487 -320 637 -52 64 -113 181 -144 276 -13 43
-16 75 -11 155 3 56 10 113 15 127 11 30 6 50 -13 50 -22 0 -37 -66 -42 -190
-4 -100 -2 -123 17 -179 32 -95 81 -188 142 -266 71 -91 160 -236 197 -316 42
-93 125 -322 149 -409 40 -144 45 -220 48 -670 2 -403 4 -450 28 -640 56 -434
83 -526 258 -870 103 -203 116 -223 139 -217 18 5 18 -6 14 -226 -3 -128 -8
-465 -11 -749 -5 -410 -9 -518 -19 -518 -7 0 -16 -12 -19 -26 -4 -14 -12 -24
-19 -21 -7 2 -73 24 -147 48 l-135 44 -239 -2 c-132 -1 -297 -9 -370 -17 -256
-29 -711 -39 -1493 -31 -682 7 -744 9 -739 24 3 9 19 55 36 104 50 141 143
597 175 852 20 157 20 456 0 594 -21 144 -69 318 -117 421 -43 93 -127 234
-226 380 -106 155 -154 282 -187 495 -9 61 -29 169 -45 240 -16 72 -31 147
-35 168 -5 29 -10 37 -23 35 -22 -5 -20 -40 18 -233 16 -82 34 -188 40 -235
17 -124 54 -258 90 -330 18 -35 72 -123 120 -195 189 -282 248 -411 302 -656
20 -93 22 -132 23 -379 0 -311 -3 -340 -87 -760 -52 -262 -84 -388 -119 -471
l-21 -47 -61 -7 c-34 -4 -110 -18 -169 -31 -86 -19 -155 -26 -350 -34 -134 -6
-270 -15 -303 -20 -33 -5 -106 -10 -162 -10 l-103 0 0 139 c0 131 -2 147 -35
257 -20 64 -45 134 -56 156 -33 65 -128 353 -159 483 -56 237 -71 480 -47 756
9 96 19 217 22 269 14 224 49 493 89 686 18 84 51 335 66 501 23 239 -30 758
-100 988 -22 72 -51 180 -64 240 -14 61 -39 169 -56 240 -16 72 -44 236 -60
365 -19 149 -39 266 -56 320 -14 47 -32 107 -40 135 -19 68 -18 255 2 349 30
135 -9 143 -42 9 -14 -56 -19 -114 -19 -203 0 -109 3 -135 27 -205 45 -133 57
-195 84 -422 14 -121 37 -268 53 -332 16 -64 39 -163 51 -221 13 -58 42 -170
67 -250 31 -102 50 -189 64 -295 11 -82 25 -186 31 -230 6 -44 12 -188 12
-320 0 -251 -17 -436 -64 -665 -35 -167 -68 -422 -85 -636 -8 -115 -20 -261
-26 -324 -14 -144 -13 -343 1 -480 17 -150 65 -377 99 -467 16 -43 37 -105 47
-138 9 -33 34 -98 55 -145 21 -47 52 -137 70 -200 31 -113 32 -117 26 -267 -6
-129 -4 -153 8 -153 7 0 17 4 20 10 4 6 54 10 118 10 62 0 148 4 192 10 44 6
188 14 320 20 162 6 258 14 295 25 125 35 239 45 543 45 l297 0 -1 -237 c-1
-131 2 -258 5 -283 12 -84 25 -415 19 -471 l-6 -56 -66 -7 c-177 -18 -390 -89
-620 -206 -121 -62 -142 -76 -214 -147 -120 -118 -137 -194 -59 -263 57 -51
239 -157 334 -196 143 -57 164 -59 823 -59 587 0 602 0 687 22 190 49 337 125
456 236 89 84 112 159 72 236 -50 99 -233 202 -500 282 -249 74 -415 111 -472
106 l-48 -4 0 261 c-1 241 -8 421 -26 668 l-7 96 359 5 c415 6 836 22 944 37
41 6 194 13 340 17 l265 6 105 -33 c58 -18 122 -38 143 -46 20 -8 51 -14 67
-14 l30 0 0 -1182 c0 -651 3 -1199 6 -1218 l6 -35 -1494 -1 c-821 -1 -1965 -7
-2542 -13 -577 -6 -1051 -9 -1055 -6 -12 13 -37 3025 -50 6000 -5 1362 -4
1541 9 1552 12 10 13 15 2 32 -14 24 -31 787 -18 853 l7 38 702 -5 c386 -3
779 -8 872 -11z m-1625 -3104 c0 -2136 7 -3104 31 -4608 7 -408 10 -744 8
-747 -6 -6 -3510 -28 -4414 -28 -534 0 -768 4 -870 13 -184 18 -660 19 -955 1
-129 -7 -273 -12 -320 -10 -166 8 -684 -2 -691 -12 -5 -9 -385 4 -394 13 -2 2
-9 174 -15 383 -5 209 -14 434 -19 500 -5 66 -12 1184 -15 2485 -3 1301 -9
2773 -12 3272 -3 499 -4 910 -1 915 3 4 1729 8 3836 8 l3831 0 0 -2185z m2822
-2866 l66 -6 5 -101 c3 -56 10 -275 16 -487 6 -212 13 -428 16 -480 11 -215
22 -350 28 -356 3 -4 13 -4 22 0 16 6 16 28 -1 233 -4 61 -4 63 22 69 52 13
248 8 324 -9 152 -33 317 -90 425 -145 225 -116 267 -214 141 -330 -106 -96
-244 -172 -387 -212 -130 -36 -263 -42 -829 -38 -514 4 -538 5 -615 26 -146
40 -422 193 -447 247 -15 34 6 79 70 147 59 63 136 116 253 173 76 37 94 42
110 32 15 -10 30 -6 86 24 88 47 179 82 191 75 6 -3 30 3 54 14 51 22 144 36
182 26 l26 -6 1 -133 c1 -176 8 -222 34 -222 18 0 20 5 15 60 -3 33 -5 118 -5
188 0 101 3 130 15 137 11 7 12 13 2 32 -7 14 -16 123 -22 268 -6 135 -15 295
-20 355 -5 61 -9 184 -9 274 l-1 163 83 -6 c45 -4 112 -9 149 -12z" data-index="0" style="opacity: 1;"></path>
<path d="M8612 8698 c2 -13 10 -23 18 -23 8 0 16 10 18 23 3 17 -2 22 -18 22
-16 0 -21 -5 -18 -22z" data-index="1"></path>
<path d="M9490 8412 c0 -30 28 -60 105 -112 40 -27 86 -65 103 -85 101 -123
146 -339 146 -705 1 -261 1 -263 -125 -582 -107 -273 -114 -309 -114 -583 l0
-230 57 -275 c31 -151 71 -356 88 -455 69 -400 87 -468 119 -473 27 -4 27 7 0
110 -11 45 -40 199 -64 343 -24 144 -62 346 -84 451 -23 104 -47 232 -56 284
-20 126 -20 373 0 481 20 107 23 116 110 344 118 308 125 344 126 583 0 358
-62 626 -173 741 -21 22 -73 64 -114 92 -42 28 -79 60 -81 70 -7 24 -43 25
-43 1z" data-index="2" style="opacity: 1;"></path>
<path d="M10343 8113 c-7 -2 -13 -13 -13 -24 0 -16 5 -18 44 -13 56 8 110 -18
178 -83 87 -85 118 -211 118 -479 0 -184 -16 -276 -90 -534 -71 -246 -74 -264
-73 -490 0 -192 2 -214 32 -353 56 -259 98 -350 241 -516 100 -116 130 -159
186 -269 24 -48 60 -114 79 -147 63 -108 114 -290 139 -494 11 -93 18 -109 43
-93 10 7 10 33 -3 128 -26 207 -80 381 -155 505 -27 45 -60 107 -74 137 -33
71 -93 160 -164 242 -132 151 -184 249 -225 419 -47 191 -59 302 -53 476 5
174 21 265 81 472 71 242 79 285 83 473 8 301 -29 455 -134 556 -75 73 -180
112 -240 87z" data-index="3"></path>
<path d="M11876 7428 c-25 -40 -36 -125 -36 -271 0 -189 27 -350 89 -537 64
-193 123 -315 224 -468 216 -327 292 -492 364 -792 24 -99 25 -124 30 -465 l5
-360 -38 -255 c-34 -229 -38 -276 -38 -455 -1 -192 1 -206 32 -333 17 -74 43
-160 56 -192 48 -121 118 -200 175 -200 33 0 25 27 -13 45 -68 32 -121 142
-173 355 -34 137 -36 154 -35 310 0 91 5 197 10 235 6 39 25 169 42 290 l32
220 -5 345 c-5 324 -7 351 -31 453 -68 292 -158 495 -339 771 -132 200 -181
301 -259 526 -40 118 -78 332 -85 475 -6 131 9 259 32 285 8 9 15 22 15 28 0
21 -39 13 -54 -10z" data-index="4"></path>
<path d="M11265 6804 c-17 -13 -20 -29 -23 -126 -7 -210 26 -304 194 -556 155
-231 167 -261 162 -407 -4 -85 -10 -126 -30 -180 -27 -76 -27 -95 2 -95 26 0
68 134 76 243 12 156 -24 257 -162 453 -151 214 -192 318 -201 504 -5 101 -4
118 12 133 9 10 14 24 11 32 -7 19 -16 18 -41 -1z" data-index="5"></path>
<path d="M11614 4938 c-4 -6 4 -19 20 -31 33 -24 75 -105 112 -217 26 -80 28
-95 28 -270 l1 -185 -112 -225 c-132 -268 -202 -449 -237 -622 -49 -242 -26
-334 98 -396 85 -43 209 -39 251 8 27 30 5 49 -30 26 -94 -62 -267 1 -296 107
-14 52 -6 137 26 278 35 157 102 326 227 577 110 221 111 224 120 319 19 191
-13 385 -88 534 -44 89 -98 133 -120 97z" data-index="6"></path>
<path d="M9596 4481 c-3 -5 10 -22 29 -38 29 -23 49 -60 108 -198 l72 -170 -1
-135 c-2 -201 -35 -321 -173 -618 -72 -155 -85 -218 -52 -249 38 -35 70 -48
84 -34 9 10 4 19 -27 46 l-40 33 21 53 c11 30 52 122 91 204 39 83 85 200 103
260 28 95 32 130 36 258 3 92 1 164 -6 192 -6 25 -41 115 -77 200 -52 123 -73
161 -99 180 -33 26 -60 32 -69 16z" data-index="7" style="opacity: 1;"></path>
<path d="M1899 7810 c-1031 -5 -1068 -6 -1088 -24 -15 -14 -21 -31 -21 -63 0
-40 6 -48 33 -44 12 2 9 -4073 -3 -4105 -13 -32 -5 -61 19 -74 18 -9 1131 -1
2436 19 374 6 1049 16 1500 21 451 6 1189 15 1640 21 451 6 1059 14 1352 18
341 4 536 10 542 16 15 15 2 85 -15 85 -10 0 -14 18 -16 68 0 37 -2 103 -3
147 -12 364 -27 1001 -35 1450 -6 297 -15 776 -20 1065 -6 289 -11 724 -13
967 l-2 443 -2620 -2 c-1441 -2 -3100 -5 -3686 -8z m6255 -520 c19 -1325 46
-2676 61 -3100 3 -85 7 -243 10 -351 l3 -196 -671 -7 c-677 -7 -1378 -16
-2657 -36 -382 -6 -1057 -15 -1500 -20 -1353 -17 -2064 -28 -2309 -36 l-233
-7 11 21 c8 15 11 595 11 2109 l0 2089 3077 3 c1693 1 3078 3 3079 4 1 1 252
2 557 2 l554 0 7 -475z" data-index="8"></path>
<path d="M2984 7654 c-4 -20 -4 -84 -1 -142 l6 -105 -25 34 c-14 19 -45 76
-70 127 -34 71 -48 93 -62 90 -24 -5 -36 -141 -25 -294 7 -109 10 -119 28
-122 17 -2 23 6 33 42 10 37 9 51 -4 81 -9 23 -14 59 -12 98 l3 62 35 -59 c19
-33 54 -97 77 -143 24 -46 47 -83 52 -83 5 0 14 7 21 15 10 12 10 42 1 152 -7
74 -11 168 -9 207 3 67 2 71 -19 74 -18 3 -23 -3 -29 -34z" data-index="9"></path>
<path d="M2284 7626 c-25 -39 -22 -260 5 -296 35 -47 103 -39 121 15 6 19 9
39 5 45 -11 19 -35 10 -45 -16 -7 -16 -16 -24 -28 -22 -14 3 -18 16 -20 76
l-3 72 34 0 c36 0 64 21 52 40 -3 5 -24 10 -46 10 l-40 0 3 46 c4 55 -13 68
-38 30z" data-index="10"></path>
<path d="M1006 7598 c-3 -18 -9 -103 -12 -189 l-7 -157 23 -12 c17 -9 49 -11
109 -6 86 7 110 18 88 44 -9 11 -28 13 -89 7 l-78 -6 1 78 c0 43 4 116 8 163
9 95 7 110 -19 110 -12 0 -20 -10 -24 -32z" data-index="11"></path>
<path d="M1557 7624 c-4 -4 -7 -68 -7 -141 0 -113 3 -140 20 -172 40 -80 141
-55 144 37 1 31 -3 37 -21 40 -19 3 -23 -1 -23 -26 0 -16 -7 -36 -16 -43 -14
-11 -19 -10 -35 10 -14 18 -19 39 -19 91 l0 67 37 -1 c28 -1 38 3 41 17 4 17
-2 21 -50 31 -23 5 -27 12 -30 48 -3 41 -22 60 -41 42z" data-index="12"></path>
<path d="M3907 7603 c-14 -14 -6 -42 14 -48 34 -11 59 -64 59 -126 0 -47 -5
-63 -30 -98 -32 -44 -32 -61 1 -61 12 0 30 17 49 47 56 88 34 226 -43 273 -35
22 -40 23 -50 13z" data-index="13"></path>
<path d="M2080 7569 c-32 -13 -40 -26 -40 -71 0 -28 7 -42 31 -62 17 -14 40
-26 53 -26 23 0 66 -26 66 -40 0 -18 -33 -40 -61 -40 -23 0 -34 8 -50 35 -35
59 -76 37 -45 -23 20 -39 53 -62 87 -62 79 0 130 53 110 113 -12 37 -32 51
-81 62 -44 9 -60 22 -60 47 0 36 38 34 92 -4 13 -9 20 -10 29 -1 13 13 -15 73
-35 73 -7 0 -26 2 -42 5 -16 2 -40 0 -54 -6z" data-index="14"></path>
<path d="M1810 7540 c-45 -45 -53 -126 -20 -190 34 -68 113 -90 171 -49 52 37
30 74 -25 44 -43 -23 -81 -14 -101 25 -8 16 -15 31 -15 34 0 2 29 3 65 3 53
-2 67 1 79 18 18 23 20 58 6 86 -26 48 -124 65 -160 29z m105 -44 c11 -8 16
-19 12 -30 -6 -14 -15 -16 -54 -10 -27 3 -49 8 -51 9 -2 2 3 12 10 24 15 24
55 28 83 7z" data-index="15"></path>
<path d="M3141 7474 c-79 -66 -34 -224 64 -224 47 0 75 15 75 41 0 19 -4 20
-49 14 -44 -6 -50 -4 -65 16 -16 23 -15 24 29 36 32 10 49 22 60 43 20 39 19
56 -5 80 -28 28 -72 25 -109 -6z m79 -33 c0 -17 -31 -41 -51 -41 -20 0 -19 8
4 38 11 14 47 16 47 3z" data-index="16"></path>
<path d="M3512 7488 c-7 -7 -12 -41 -12 -83 0 -99 -38 -145 -53 -65 -9 43 -45
42 -54 -1 -10 -50 -23 -12 -23 68 0 74 -10 94 -35 73 -18 -15 -20 -125 -4
-182 11 -42 48 -60 80 -40 12 8 20 8 24 2 12 -19 61 -10 86 16 22 23 24 34 24
121 0 95 -8 116 -33 91z" data-index="17"></path>
<path d="M3600 7480 c-39 -39 -16 -103 43 -118 22 -6 32 -14 32 -28 0 -19 -22
-23 -80 -12 -26 4 -32 -29 -8 -47 51 -39 143 -1 143 59 0 37 -19 58 -65 73
-35 11 -47 43 -16 43 11 0 23 -4 26 -10 9 -15 35 -12 42 5 17 46 -78 74 -117
35z" data-index="18"></path>
<path d="M3866 7491 c-10 -16 5 -41 24 -41 23 0 32 13 24 34 -7 17 -39 22 -48
7z" data-index="19"></path>
<path d="M1296 7432 c-53 -56 -41 -145 24 -172 26 -11 37 -10 71 3 31 12 45
13 59 5 21 -14 50 -4 50 16 0 9 -9 20 -20 26 -18 10 -20 17 -14 60 6 43 4 51
-12 57 -11 3 -23 12 -27 20 -5 8 -27 13 -56 13 -39 0 -52 -5 -75 -28z m116
-62 c-6 -59 -52 -88 -86 -54 -38 37 -6 94 53 94 l37 0 -4 -40z" data-index="20"></path>
<path d="M3864 7375 c-4 -9 -2 -21 4 -27 15 -15 44 -1 40 19 -4 23 -36 29 -44
8z" data-index="21"></path>
<path d="M2175 7163 c-695 -8 -1179 -18 -1193 -24 -16 -6 -22 -16 -20 -32 3
-21 7 -22 128 -25 280 -7 2623 28 2637 39 18 15 16 46 -3 53 -19 7 -40 7
-1549 -11z" data-index="22"></path>
<path d="M7106 3494 c-466 -7 -850 -15 -852 -17 -4 -4 37 -3070 41 -3075 4 -4
2048 27 2052 32 2 2 -6 635 -17 1407 -11 771 -20 1463 -20 1536 l0 133 -177
-1 c-98 -1 -560 -8 -1027 -15z m1134 -166 c0 -62 9 -722 20 -1467 11 -745 18
-1356 16 -1358 -4 -4 -1908 -34 -1912 -30 -4 4 -43 2931 -39 2935 3 3 1244 24
1783 31 l132 1 0 -112z" data-index="23"></path>
<path d="M6856 3325 c-8 -42 2 -172 16 -197 13 -26 72 -24 98 4 23 25 26 43 8
54 -7 4 -18 -2 -26 -14 -8 -12 -23 -22 -33 -22 -19 0 -20 6 -19 87 0 4 10 8
22 8 34 0 33 24 -1 36 -26 9 -30 15 -28 42 1 22 -3 32 -14 35 -12 2 -18 -7
-23 -33z" data-index="24"></path>
<path d="M6687 3289 c-28 -16 -49 -74 -41 -115 12 -67 98 -97 154 -54 20 15
23 21 12 32 -10 10 -17 10 -32 0 -31 -19 -67 -14 -84 10 -19 26 -21 47 -4 30
7 -7 28 -12 48 -12 45 0 60 15 60 56 0 53 -63 82 -113 53z m73 -49 c0 -21 -22
-26 -54 -14 -23 9 -1 34 30 34 17 0 24 -6 24 -20z" data-index="25"></path>
<path d="M6510 3267 c-75 -38 -58 -149 20 -134 30 6 30 6 30 -36 0 -23 -5 -49
-10 -57 -8 -12 -13 -11 -33 8 -20 19 -26 20 -35 9 -9 -10 -5 -21 16 -46 25
-30 29 -32 54 -21 42 20 52 57 44 168 -4 53 -10 100 -14 103 -16 15 -49 18
-72 6z m40 -36 c0 -24 -21 -61 -35 -61 -19 0 -19 20 1 48 15 22 34 29 34 13z" data-index="26"></path>
<path d="M6470 2912 c0 -41 23 -72 53 -72 13 0 15 -7 10 -32 -3 -18 -10 -41
-15 -50 -9 -19 -28 -24 -28 -8 0 13 -27 13 -35 0 -7 -11 15 -48 33 -55 21 -8
50 12 67 46 9 16 19 68 22 115 6 80 5 84 -14 84 -15 0 -22 -9 -27 -32 -7 -35
-22 -29 -28 12 -2 14 -11 26 -20 28 -15 3 -18 -4 -18 -36z" data-index="27"></path>
<path d="M6916 2893 c-8 -8 -8 -101 0 -131 11 -39 38 -22 46 28 5 30 16 52 33
65 14 12 25 26 25 33 0 14 -29 16 -49 3 -9 -6 -22 -6 -32 -1 -9 5 -19 6 -23 3z" data-index="28"></path>
<path d="M6862 2878 c-7 -7 -12 -28 -12 -48 0 -41 -25 -85 -34 -60 -3 8 -7 35
-8 60 -2 33 -7 46 -20 48 -16 3 -18 -5 -18 -62 0 -59 3 -67 25 -82 49 -32 95
15 95 100 0 48 -10 62 -28 44z" data-index="29"></path>
<path d="M6637 2858 c-9 -7 -20 -34 -23 -59 -5 -39 -3 -50 15 -68 45 -45 101
-9 101 65 0 33 -5 46 -22 58 -27 19 -49 20 -71 4z m51 -62 c4 -34 -12 -56 -29
-39 -14 14 -1 75 14 70 7 -2 13 -16 15 -31z" data-index="30"></path>
<path d="M6473 2618 c-22 -10 -23 -17 -23 -113 0 -79 3 -105 15 -115 18 -15
23 -4 27 60 3 43 5 45 36 48 83 8 76 132 -8 131 -14 0 -35 -5 -47 -11z m72
-53 c0 -14 -8 -21 -27 -23 -22 -3 -28 1 -28 16 0 25 10 33 35 30 12 -2 20 -10
20 -23z" data-index="31"></path>
<path d="M6622 2617 c-7 -8 -8 -51 -4 -122 6 -90 10 -110 23 -113 13 -2 17 8
22 43 8 78 47 89 47 14 0 -33 3 -40 18 -37 12 2 18 14 20 41 4 51 -19 87 -57
87 -31 0 -41 14 -41 60 0 33 -13 46 -28 27z" data-index="32"></path>
<path d="M6917 2624 c-4 -4 -7 -47 -7 -95 0 -88 11 -119 43 -119 20 0 57 30
57 46 0 17 -31 19 -48 2 -9 -9 -12 -4 -12 25 0 30 4 37 20 37 26 0 26 30 1 37
-13 3 -21 15 -23 36 -3 30 -17 44 -31 31z" data-index="33"></path>
<path d="M7242 2572 c-26 -26 -18 -59 19 -81 33 -18 39 -36 9 -27 -11 3 -29 9
-41 12 -17 6 -20 3 -17 -12 5 -29 51 -50 84 -39 57 21 57 65 1 93 -36 17 -34
33 2 26 17 -4 32 -1 36 6 10 16 -4 28 -42 36 -23 5 -36 1 -51 -14z" data-index="34"></path>
<path d="M7057 2542 c-34 -37 -16 -93 33 -111 77 -26 131 49 75 104 -30 31
-84 34 -108 7z m87 -45 c8 -14 8 -20 -4 -27 -20 -13 -23 -12 -45 4 -24 17 -13
49 16 44 12 -2 27 -11 33 -21z" data-index="35"></path>
<path d="M6820 2527 c-20 -10 -26 -21 -28 -54 -5 -70 47 -98 87 -47 26 34 27
68 1 94 -23 23 -27 24 -60 7z m35 -66 c-3 -12 -11 -21 -16 -21 -10 0 -12 43
-2 54 12 12 25 -11 18 -33z" data-index="36"></path>
<path d="M6900 1430 l0 -880 415 0 415 0 0 880 0 880 -415 0 -415 0 0 -880z
m760 0 l0 -810 -345 0 -345 0 0 810 0 810 345 0 345 0 0 -810z" data-index="37"></path>
<path d="M7130 2180 c-84 -17 -88 -19 -99 -51 -14 -41 -14 -137 0 -236 16
-114 14 -113 223 -113 201 0 297 16 336 55 24 24 25 31 24 133 -2 121 -16 170
-60 199 -24 15 -52 18 -204 20 -96 1 -195 -2 -220 -7z m389 -43 c40 -14 47
-33 57 -149 8 -93 -5 -135 -45 -144 -14 -3 -33 -8 -41 -10 -10 -3 -29 23 -60
83 -55 105 -74 116 -124 72 l-34 -30 -27 36 c-35 45 -58 45 -121 0 -27 -19
-52 -35 -56 -35 -9 0 -11 131 -2 154 5 12 20 16 59 16 30 0 57 5 60 10 9 14
292 12 334 -3z m-295 -182 c32 -42 60 -45 92 -10 13 14 28 25 33 25 9 0 81
-129 81 -145 0 -9 -338 -6 -344 3 -3 5 -8 26 -11 48 -5 38 -5 39 52 76 32 20
61 37 64 37 4 1 19 -15 33 -34z" data-index="38"></path>
<path d="M7429 2104 c-42 -51 -3 -144 60 -144 34 0 48 10 60 43 13 34 1 68
-35 96 -32 25 -66 27 -85 5z m80 -56 c11 -30 3 -48 -20 -48 -21 0 -43 35 -35
56 9 22 46 17 55 -8z" data-index="39"></path>
<path d="M7115 1745 c-5 -2 -22 -6 -37 -9 -49 -11 -62 -54 -63 -198 0 -120 1
-129 23 -150 21 -21 30 -23 140 -22 64 1 182 6 261 11 175 11 181 15 181 124
0 146 -36 213 -127 238 -34 10 -353 15 -378 6z m405 -60 c24 -15 38 -33 47
-60 15 -53 16 -178 1 -193 -7 -7 -33 -12 -59 -12 -56 0 -74 18 -120 120 -55
121 -82 129 -130 39 l-33 -61 -18 24 c-9 13 -18 26 -18 31 0 4 -8 7 -19 7 -21
0 -85 -66 -96 -99 -3 -12 -11 -21 -17 -21 -12 0 -6 182 7 213 5 12 18 17 46
17 21 0 39 4 39 10 0 12 89 16 225 10 87 -4 117 -9 145 -25z m-157 -179 l43
-84 -30 -6 c-55 -10 -264 -19 -281 -12 -15 5 -14 10 6 43 12 21 31 48 43 61
l20 22 21 -26 c29 -37 54 -28 95 34 19 28 35 52 36 52 2 0 23 -38 47 -84z" data-index="40"></path>
<path d="M7414 1666 c-11 -29 2 -69 28 -89 25 -19 28 -19 52 -3 34 22 34 58 0
85 -31 24 -72 28 -80 7z m66 -46 c0 -5 -7 -10 -15 -10 -8 0 -15 5 -15 10 0 6
7 10 15 10 8 0 15 -4 15 -10z" data-index="41"></path>
<path d="M7038 1290 c-32 -32 -43 -90 -36 -198 5 -69 8 -78 36 -103 40 -35
116 -44 316 -35 165 7 211 20 234 67 6 15 15 74 18 131 7 101 6 104 -18 133
l-26 29 -248 1 -249 1 -27 -26z m121 -68 c1 -33 -59 -92 -93 -92 -24 0 -26 3
-26 43 0 64 18 91 65 97 43 5 53 -4 54 -48z m379 50 c31 -3 27 -15 -12 -36
-19 -10 -47 -31 -61 -46 -23 -24 -31 -27 -51 -18 -19 9 -31 6 -71 -20 -42 -27
-49 -29 -64 -17 -8 8 -20 15 -26 15 -5 0 -43 -34 -83 -76 -65 -67 -76 -74 -95
-66 -13 6 -25 23 -28 39 -6 33 -2 43 20 43 32 0 86 35 110 72 20 29 25 46 21
75 l-5 38 161 0 c88 -1 171 -2 184 -3z m27 -146 c-8 -105 -18 -115 -117 -127
-72 -8 -298 -12 -298 -5 0 2 23 26 52 55 35 35 55 48 62 41 17 -17 38 -12 85
19 34 23 49 28 63 20 22 -12 47 0 107 53 24 21 46 36 49 34 2 -3 1 -43 -3 -90z" data-index="42"></path>
<path d="M1444 1996 c-3 -9 -3 -31 0 -49 6 -32 5 -33 -29 -33 -25 0 -43 -8
-63 -27 -23 -23 -27 -36 -27 -81 0 -40 5 -60 20 -76 27 -30 60 -41 89 -30 14
5 27 5 33 -1 5 -5 18 -7 28 -3 16 7 17 17 11 118 -10 151 -17 190 -39 194 -9
2 -20 -4 -23 -12z m4 -171 c12 -37 11 -40 -13 -64 l-26 -26 -20 24 c-23 28
-24 59 -3 89 22 32 47 23 62 -23z" data-index="43"></path>
<path d="M1805 1873 c4 -76 12 -146 17 -155 6 -14 21 -18 58 -18 41 0 52 4 69
26 48 61 11 164 -58 164 -33 0 -38 9 -43 80 -2 28 -8 36 -26 38 l-24 4 7 -139z
m111 -57 c9 -38 1 -61 -24 -64 -20 -3 -22 1 -22 36 0 21 3 42 7 45 14 15 33 6
39 -17z" data-index="44"></path>
<path d="M1603 1922 c-12 -2 -34 -17 -48 -33 -36 -43 -36 -129 0 -164 27 -28
80 -33 109 -12 31 23 14 42 -35 42 -38 0 -44 3 -47 22 -3 19 2 22 35 25 30 2
41 9 52 32 23 48 -13 97 -66 88z m13 -67 c-26 -19 -42 -19 -26 0 7 8 20 15 29
15 13 -1 13 -3 -3 -15z" data-index="45"></path>
<path d="M906 1913 c-4 -5 -20 -8 -34 -8 -26 0 -27 -3 -30 -55 -2 -30 0 -74 3
-98 6 -37 9 -43 28 -40 19 3 23 12 29 61 8 66 23 102 32 77 3 -8 6 -28 8 -45
2 -22 8 -30 22 -30 14 0 23 12 33 48 24 84 63 45 63 -63 0 -52 2 -60 19 -60
24 0 31 19 31 80 0 57 -11 91 -40 120 -22 22 -69 27 -88 8 -9 -9 -15 -9 -24 0
-13 13 -41 16 -52 5z" data-index="46"></path>
<path d="M1172 1878 c-11 -24 -23 -57 -27 -74 -13 -65 37 -120 89 -96 20 9 27
7 42 -9 38 -43 63 -16 34 38 -12 24 -20 57 -20 88 0 66 -20 95 -65 95 -29 0
-36 -5 -53 -42z m57 -106 c-5 -13 -15 -22 -22 -19 -15 5 -12 69 5 100 12 21
12 20 19 -18 4 -22 3 -50 -2 -63z" data-index="47"></path>
<path d="M2100 1884 c-6 -14 -10 -43 -10 -64 0 -47 -8 -70 -25 -70 -19 0 -25
24 -25 92 0 56 -1 59 -22 56 -22 -3 -23 -7 -23 -87 1 -90 12 -111 62 -111 24
0 30 -20 17 -55 -27 -68 -310 -104 -845 -106 -196 -1 -361 1 -366 4 -6 4 -17
0 -24 -9 -23 -28 14 -44 105 -45 579 -10 1000 20 1116 80 42 21 70 71 70 125
0 22 5 68 11 103 12 71 6 113 -16 113 -9 0 -20 -12 -25 -26z" data-index="48"></path>
<path d="M2214 1865 c-4 -9 -2 -21 4 -27 15 -15 44 -1 40 19 -4 23 -36 29 -44
8z" data-index="49"></path>
<path d="M2223 1793 c-21 -8 -15 -43 6 -43 11 0 23 5 27 11 8 14 -17 38 -33
32z" data-index="50"></path>
<path d="M1165 1415 c-180 -65 -150 -332 41 -361 81 -12 215 28 188 56 -9 9
-25 8 -65 -4 -131 -39 -224 4 -244 114 -18 101 85 191 184 159 45 -14 97 -63
104 -97 9 -49 -30 -111 -50 -79 -4 7 -8 25 -9 41 -2 31 -26 56 -55 56 -26 0
-69 -57 -69 -91 0 -39 40 -67 75 -51 19 9 32 9 50 0 54 -25 114 62 94 135 -27
97 -147 158 -244 122z m105 -179 c0 -30 -27 -55 -36 -33 -6 17 12 57 26 57 6
0 10 -11 10 -24z" data-index="51"></path>
<path d="M2485 1398 c-2 -7 -1 -69 3 -138 6 -101 10 -125 22 -125 29 0 22 263
-7 273 -7 2 -15 -2 -18 -10z" data-index="52"></path>
<path d="M2406 1383 c-7 -7 1 -206 10 -250 2 -13 11 -23 19 -23 12 0 15 16 14
88 -1 149 -16 212 -43 185z" data-index="53"></path>
<path d="M2790 1330 c-31 -31 -40 -63 -29 -105 17 -60 98 -95 144 -62 26 20
10 40 -26 32 -34 -8 -79 16 -79 40 0 18 -3 17 39 5 70 -20 119 42 71 90 -27
27 -93 27 -120 0z m96 -31 c13 -21 -12 -30 -44 -16 -18 7 -29 16 -25 20 10 11
61 8 69 -4z" data-index="54"></path>
<path d="M1615 1318 c-2 -7 -11 -46 -21 -85 -9 -40 -18 -73 -20 -73 -1 0 -12
28 -23 63 -27 79 -35 91 -55 84 -14 -6 -13 -15 10 -79 35 -98 64 -149 83 -146
11 2 22 34 38 103 27 121 28 145 8 145 -9 0 -17 -6 -20 -12z" data-index="55"></path>
<path d="M2574 1309 c-9 -15 11 -33 30 -26 9 4 13 13 10 22 -7 17 -30 20 -40
4z" data-index="56"></path>
<path d="M2044 1285 c-4 -8 -3 -23 1 -32 3 -10 10 -78 15 -152 5 -73 11 -136
14 -139 3 -2 13 -2 22 2 14 5 16 17 12 69 -5 61 -4 62 26 82 43 28 61 84 42
130 -8 18 -23 38 -34 44 -31 16 -92 14 -98 -4z m91 -48 c12 -19 13 -30 4 -55
-6 -18 -17 -32 -24 -32 -11 0 -25 49 -25 93 0 25 27 21 45 -6z" data-index="57"></path>
<path d="M2249 1277 c-52 -26 -63 -95 -23 -132 31 -29 51 -31 81 -10 14 10 24
12 28 5 9 -15 45 -12 45 3 0 8 -9 22 -19 32 -11 9 -21 33 -23 53 -2 29 -9 38
-34 48 -24 10 -36 10 -55 1z m51 -67 c0 -36 -24 -57 -45 -40 -19 16 -19 39 1
61 21 24 44 13 44 -21z" data-index="58"></path>
<path d="M1835 1256 c-11 -8 -18 -26 -18 -46 0 -38 23 -60 65 -60 15 0 28 -5
28 -10 0 -6 -16 -10 -37 -8 -45 4 -53 -21 -12 -36 37 -13 78 0 91 29 15 33 -3
53 -54 61 -42 7 -56 20 -39 37 8 8 18 7 36 -3 34 -18 50 -2 29 28 -17 25 -60
29 -89 8z" data-index="59"></path>
<path d="M1970 1250 c0 -15 5 -20 18 -18 9 2 17 10 17 18 0 8 -8 16 -17 18
-13 2 -18 -3 -18 -18z" data-index="60"></path>
<path d="M2582 1203 c2 -37 7 -49 21 -51 16 -3 18 3 15 45 -2 37 -7 49 -21 51
-16 3 -18 -3 -15 -45z" data-index="61"></path>
<path d="M1675 1205 c-27 -26 -33 -72 -15 -106 12 -21 74 -27 85 -9 3 6 17 7
30 4 33 -8 43 15 17 37 -12 9 -22 22 -22 28 0 14 -50 71 -62 71 -5 0 -20 -11
-33 -25z m50 -56 c0 -15 -7 -25 -17 -27 -13 -3 -18 3 -18 21 0 13 3 27 7 31
13 12 28 -1 28 -25z" data-index="62"></path>
<path d="M1986 1201 c-3 -4 -2 -28 2 -52 5 -30 13 -45 25 -47 13 -3 17 4 17
27 0 55 -27 100 -44 72z" data-index="63"></path>
<path d="M2680 1180 c0 -13 7 -20 20 -20 13 0 20 7 20 20 0 13 -7 20 -20 20
-13 0 -20 -7 -20 -20z" data-index="64"></path>
<path d="M1775 863 c-76 -4 -111 -16 -99 -34 3 -5 22 -9 43 -9 38 0 38 0 45
-46 3 -26 6 -64 6 -85 0 -34 -3 -38 -27 -41 -17 -2 -28 -9 -28 -18 0 -12 18
-16 88 -18 81 -3 88 -1 85 15 -2 13 -14 19 -41 21 -36 3 -37 5 -37 41 0 21 -3
59 -6 84 l-7 46 44 3 c36 2 44 7 44 23 0 22 -1 22 -110 18z" data-index="65"></path>
<path d="M2263 844 c-9 -24 4 -150 19 -181 17 -36 51 -41 72 -12 18 27 12 41
-17 37 -32 -4 -38 47 -6 55 26 7 20 31 -9 35 -16 2 -22 10 -22 27 0 48 -24 73
-37 39z" data-index="66"></path>
<path d="M1152 820 c-105 -64 -39 -242 73 -196 79 33 88 156 15 199 -36 22
-48 21 -88 -3z m96 -88 c3 -33 -1 -43 -23 -60 -42 -33 -85 -6 -85 52 0 39 9
52 40 65 38 14 64 -8 68 -57z" data-index="67"></path>
<path d="M1327 725 c-5 -97 2 -130 23 -109 5 5 14 40 19 77 10 74 23 97 52 97
33 0 52 -44 46 -102 -7 -59 6 -96 29 -77 19 15 19 118 0 164 -19 43 -40 54
-108 52 l-56 -1 -5 -101z" data-index="68"></path>
<path d="M2790 810 c-8 -5 -26 -6 -39 -3 -24 6 -24 6 -18 -58 10 -94 28 -100
52 -19 7 22 21 40 38 48 23 11 26 16 16 28 -13 16 -28 18 -49 4z" data-index="69"></path>
<path d="M2890 788 c-28 -46 -26 -84 5 -104 21 -14 28 -14 53 -2 17 9 36 12
48 7 32 -13 44 -10 44 10 0 10 -9 21 -20 24 -14 4 -20 14 -20 35 0 21 -8 35
-25 46 -38 25 -63 20 -85 -16z m60 -32 c0 -30 -27 -55 -36 -33 -6 17 12 57 26
57 6 0 10 -11 10 -24z" data-index="70"></path>
<path d="M3065 797 c-4 -13 -5 -48 -3 -77 2 -42 7 -56 20 -58 12 -2 20 11 32
52 19 63 38 72 55 26 14 -40 39 -38 57 5 8 19 21 35 29 35 19 0 38 -37 32 -62
-7 -26 2 -48 18 -48 16 0 29 63 19 93 -11 36 -35 57 -66 57 -15 0 -36 -8 -45
-17 -17 -17 -19 -17 -35 -1 -14 14 -23 15 -42 8 -16 -6 -27 -6 -31 0 -11 18
-35 10 -40 -13z" data-index="71"></path>
<path d="M2156 789 c-39 -31 -32 -67 19 -96 39 -22 25 -34 -15 -13 -13 7 -21
6 -29 -4 -26 -31 77 -64 107 -34 25 25 14 57 -28 78 -26 13 -38 25 -34 32 6 9
9 9 12 0 6 -18 32 -15 32 4 0 20 -18 54 -29 54 -5 0 -20 -10 -35 -21z" data-index="72"></path>
<path d="M2596 778 c-19 -27 -21 -79 -4 -96 7 -7 27 -12 45 -12 31 0 33 -2 33
-36 0 -40 -15 -74 -32 -74 -7 0 -22 10 -35 21 -19 19 -23 20 -28 6 -11 -28 24
-67 60 -67 61 0 86 64 70 185 -10 85 -72 126 -109 73z m59 -44 c0 -10 -8 -20
-17 -22 -18 -3 -26 27 -11 42 12 11 28 0 28 -20z" data-index="73"></path>
<path d="M1943 773 c-8 -3 -10 -23 -7 -61 7 -83 13 -102 28 -102 17 0 26 22
26 65 0 36 21 60 44 52 10 -4 16 -23 18 -54 2 -35 7 -48 18 -48 11 0 16 14 18
52 2 42 -1 56 -17 72 -22 22 -56 27 -80 12 -10 -6 -18 -5 -25 4 -6 7 -16 11
-23 8z" data-index="74"></path>
<path d="M2401 754 c-27 -34 -26 -54 0 -89 18 -22 27 -26 53 -21 17 4 49 8 71
9 29 1 41 7 43 20 3 13 -3 17 -23 17 -20 0 -27 6 -32 30 -11 60 -77 79 -112
34z m67 -38 c6 -29 -15 -43 -35 -24 -14 14 -14 20 -3 33 16 19 34 15 38 -9z" data-index="75"></path>
<path d="M11852 1547 c-14 -16 -6 -27 19 -27 9 0 50 -11 91 -25 77 -26 122
-63 134 -110 8 -34 -4 -46 -116 -121 -71 -48 -122 -73 -202 -100 -99 -33 -126
-51 -100 -68 4 -2 56 11 115 30 82 27 131 51 205 100 53 36 107 75 120 86 28
28 28 71 -1 123 -27 47 -72 80 -139 100 -85 25 -113 28 -126 12z" data-index="76"></path>
</g>
</svg>