<?xml version="1.0" standalone="no"?>
<!DOCTYPE svg PUBLIC "-//W3C//DTD SVG 20010904//EN"
 "http://www.w3.org/TR/2001/REC-SVG-20010904/DTD/svg10.dtd">
<svg version="1.0" xmlns="http://www.w3.org/2000/svg"
 width="1417.000000pt" height="900.000000pt" viewBox="0 0 1417.000000 900.000000"
 preserveAspectRatio="xMidYMid meet">

<g transform="translate(0.000000,900.000000) scale(0.100000,-0.100000)"
fill="#000000" stroke="none">
<path d="M240 4460 l0 -4320 6895 0 6895 0 0 4320 0 4320 -6895 0 -6895 0 0
-4320z m3528 0 l-3 -4250 -1727 0 -1728 0 0 4250 0 4250 1731 0 1731 0 -4
-4250z m10192 0 l0 -4250 -5056 0 c-4810 0 -5055 1 -5050 18 2 9 6 1922 8
4249 l3 4233 5048 0 5047 0 0 -4250z"/>
<path d="M4515 8601 c-55 -9 -169 -75 -204 -118 -42 -51 -54 -106 -49 -220 9
-192 65 -276 217 -326 54 -18 102 -27 147 -27 64 0 68 2 105 39 41 41 49 70
24 91 -12 10 -18 10 -30 0 -8 -7 -15 -18 -15 -24 0 -7 -12 -23 -27 -35 -23
-21 -33 -23 -88 -18 -195 18 -275 118 -275 339 1 120 32 168 146 224 68 33
156 31 185 -4 20 -26 59 -29 59 -6 0 59 -96 101 -195 85z"/>
<path d="M5417 8493 c-4 -3 -7 -98 -7 -209 0 -179 2 -210 20 -257 23 -61 42
-82 82 -92 37 -9 108 26 131 64 20 35 22 77 4 84 -19 7 -29 -2 -49 -46 -18
-37 -59 -64 -80 -51 -29 18 -48 91 -48 187 l0 98 45 -2 c55 -3 80 15 51 37
-11 8 -37 14 -58 14 l-38 0 0 74 c0 41 -3 81 -6 90 -6 16 -35 22 -47 9z"/>
<path d="M10267 8453 c-12 -21 -16 -132 -8 -257 8 -134 9 -140 35 -163 60 -51
154 -17 147 55 -2 19 -39 14 -51 -8 -13 -24 -55 -27 -64 -4 -3 9 -6 49 -6 90
l0 74 30 0 c19 0 33 6 37 16 7 20 -13 34 -49 34 -27 0 -27 0 -30 82 -2 68 -6
83 -20 86 -9 2 -18 -1 -21 -5z"/>
<path d="M9930 8428 c-56 -28 -76 -66 -64 -117 13 -52 56 -77 149 -84 80 -7
128 -25 139 -52 3 -9 6 -32 6 -51 0 -69 -81 -111 -189 -100 -113 12 -126 12
-126 -4 0 -41 152 -64 246 -36 74 21 119 68 127 132 10 95 -52 149 -184 160
-80 7 -114 25 -114 58 0 41 35 61 105 61 73 0 85 7 60 35 -25 28 -97 27 -155
-2z"/>
<path d="M9250 8425 c-8 -10 -10 -31 -5 -67 4 -29 10 -120 14 -203 l6 -150 25
0 25 0 1 105 c0 58 6 125 13 150 16 56 64 107 113 121 40 10 48 28 23 49 -21
17 -54 6 -108 -35 -25 -19 -48 -35 -51 -35 -3 0 -6 13 -6 28 0 26 -15 52 -31
52 -4 0 -12 -7 -19 -15z"/>
<path d="M9136 8423 c-4 -4 -4 -71 0 -150 7 -155 1 -191 -41 -213 -30 -16
-140 -19 -155 -4 -12 12 -23 91 -37 258 -6 68 -12 92 -25 100 -13 8 -21 7 -30
-2 -17 -17 14 -333 37 -368 27 -42 71 -57 143 -51 71 7 114 28 146 70 19 26
21 41 19 170 -1 78 -6 154 -12 170 -10 26 -30 35 -45 20z"/>
<path d="M8561 8398 c-71 -36 -86 -65 -86 -161 0 -93 21 -160 61 -198 35 -33
138 -35 181 -3 53 40 68 79 68 181 0 105 -13 132 -81 169 -63 35 -93 37 -143
12z m135 -72 c33 -33 34 -37 34 -109 0 -61 -4 -80 -23 -108 -43 -64 -113 -64
-151 1 -17 28 -21 52 -21 117 0 92 9 110 66 123 55 13 59 12 95 -24z"/>
<path d="M7334 8366 c-38 -17 -72 -63 -90 -123 -45 -148 35 -277 171 -277 59
0 135 37 135 66 0 29 -26 32 -60 8 -36 -26 -109 -29 -144 -7 -98 64 -55 297
55 297 32 0 89 -44 89 -70 0 -27 -20 -38 -88 -46 -64 -7 -87 -23 -63 -47 8 -8
31 -8 88 0 64 9 82 16 100 38 30 35 29 76 -3 115 -50 58 -121 76 -190 46z"/>
<path d="M8134 8368 c-12 -19 -4 -279 10 -313 34 -79 135 -103 200 -47 18 17
19 15 12 -48 -8 -80 -33 -161 -54 -177 -22 -18 -87 -16 -102 2 -7 8 -20 15
-30 15 -29 0 -32 -29 -5 -56 19 -19 34 -24 76 -24 80 0 114 22 140 88 32 87
39 150 39 358 0 196 -4 214 -41 214 -24 0 -29 -20 -29 -128 0 -53 -5 -115 -11
-137 -22 -82 -87 -112 -128 -59 -19 24 -21 40 -21 163 0 136 -6 161 -36 161
-7 0 -16 -5 -20 -12z"/>
<path d="M6702 8348 c-15 -18 1 -41 24 -36 23 4 26 41 3 46 -9 1 -21 -3 -27
-10z"/>
<path d="M6902 8340 c-41 -25 -48 -42 -32 -81 18 -41 46 -58 121 -70 75 -12
86 -20 95 -65 15 -79 -34 -129 -116 -119 -85 10 -103 10 -107 -2 -3 -7 10 -22
29 -33 68 -41 194 -16 235 47 24 37 22 126 -4 161 -25 35 -79 62 -123 62 -39
0 -80 23 -80 45 0 22 37 28 91 15 36 -9 54 -9 61 -2 19 19 1 39 -46 51 -63 16
-86 14 -124 -9z"/>
<path d="M10893 8325 c-3 -9 2 -66 11 -128 9 -62 21 -166 27 -232 6 -66 14
-124 19 -128 4 -5 16 -7 26 -5 21 4 23 30 12 131 l-7 57 32 0 c42 0 83 28 118
81 49 74 34 184 -31 223 -39 22 -198 23 -207 1z m173 -43 c41 -27 45 -111 9
-165 -25 -36 -69 -58 -85 -41 -4 5 -13 47 -19 94 -7 47 -14 93 -17 103 -5 15
2 17 48 17 29 0 58 -4 64 -8z"/>
<path d="M5783 8315 c-42 -18 -60 -48 -72 -121 -14 -89 10 -165 67 -217 53
-48 151 -39 201 19 47 53 65 155 40 221 -34 90 -147 137 -236 98z m167 -90
c35 -57 25 -160 -20 -205 -26 -26 -91 -27 -116 -3 -35 35 -56 100 -48 151 11
76 17 86 65 98 57 14 93 2 119 -41z"/>
<path d="M6085 8263 c4 -37 13 -124 19 -193 10 -115 13 -125 32 -128 36 -5 47
22 48 121 1 82 5 98 29 139 45 77 83 74 109 -7 10 -32 18 -40 37 -40 20 0 27
8 40 48 18 53 40 72 72 62 32 -11 49 -65 50 -162 1 -110 8 -137 37 -141 13 -2
22 2 23 10 3 49 -4 212 -11 243 -10 45 -53 92 -91 100 -34 8 -95 -10 -107 -31
-7 -13 -14 -12 -45 6 -51 30 -95 21 -140 -29 l-35 -39 -13 52 c-12 41 -19 52
-38 54 -24 4 -24 4 -16 -65z"/>
<path d="M10745 8310 c-10 -17 20 -44 40 -36 9 3 15 14 13 23 -4 21 -43 30
-53 13z"/>
<path d="M10491 8277 c-8 -10 -7 -47 2 -138 12 -122 12 -124 37 -124 23 0 26
5 32 59 10 75 36 130 65 134 26 4 47 27 38 42 -9 15 -67 12 -89 -5 -28 -21
-36 -19 -36 9 0 13 -7 27 -16 30 -21 8 -20 8 -33 -7z"/>
<path d="M5183 8230 c-78 -47 -54 -99 57 -121 46 -9 64 -17 71 -33 16 -34 -4
-72 -45 -86 -30 -9 -42 -8 -78 8 -49 21 -68 19 -68 -9 0 -22 42 -46 98 -55 31
-5 52 -1 85 15 49 24 67 53 67 112 0 53 -31 84 -94 93 -70 11 -79 15 -65 33 8
9 29 13 61 12 58 -3 84 14 54 37 -29 20 -105 18 -143 -6z"/>
<path d="M6717 8244 c-8 -9 -8 -147 1 -224 6 -50 9 -55 32 -55 l25 0 -4 95
c-2 52 -4 115 -5 140 -1 37 -5 46 -21 48 -12 2 -24 0 -28 -4z"/>
<path d="M5019 8233 c-1 -5 -1 -44 1 -89 2 -98 -16 -150 -55 -160 -17 -4 -32
-2 -40 7 -15 15 -38 169 -29 192 7 19 -22 41 -42 33 -14 -6 -16 -20 -12 -104
7 -137 33 -182 108 -182 78 0 121 61 128 180 5 87 -8 130 -38 130 -11 0 -21
-3 -21 -7z"/>
<path d="M10757 8233 c-20 -19 7 -211 31 -220 7 -3 20 1 27 8 11 11 12 29 3
94 -5 44 -14 90 -19 103 -8 21 -29 29 -42 15z"/>
<path d="M10135 7915 c-22 -7 -58 -22 -80 -34 -46 -25 -117 -28 -135 -6 -15
18 -36 19 -46 3 -4 -6 4 -21 20 -35 41 -35 116 -32 190 7 35 19 78 33 115 36
51 6 64 3 103 -20 30 -17 73 -30 124 -38 76 -10 81 -10 138 16 82 36 177 37
231 1 20 -14 50 -29 66 -32 25 -5 29 -2 29 16 0 12 -6 21 -15 21 -8 0 -36 14
-62 30 -41 26 -56 30 -120 30 -57 0 -88 -6 -135 -26 -52 -22 -70 -25 -121 -19
-35 4 -82 19 -114 36 -61 32 -120 37 -188 14z"/>
<path d="M8700 7913 c-8 -4 -30 -17 -48 -31 -30 -23 -39 -24 -107 -19 -60 4
-75 3 -75 -8 0 -23 35 -35 104 -35 55 0 69 4 95 26 49 41 85 41 166 0 61 -31
79 -36 142 -36 52 0 91 7 135 24 79 29 147 40 181 27 19 -7 28 -6 36 3 37 44
-119 55 -206 16 -32 -15 -75 -24 -128 -27 -77 -5 -83 -4 -149 31 -64 34 -109
43 -146 29z"/>
<path d="M6655 7876 c-22 -7 -71 -30 -110 -50 -80 -43 -108 -43 -165 3 -80 64
-98 63 -230 -6 -95 -50 -110 -50 -177 -2 -73 52 -116 48 -224 -21 -78 -51 -97
-50 -163 8 -31 28 -68 53 -82 56 -38 10 -124 -19 -173 -56 -88 -67 -104 -78
-124 -78 -11 0 -48 30 -86 70 -62 65 -71 70 -109 70 -36 0 -48 -7 -99 -54 -32
-29 -73 -61 -91 -70 -37 -19 -28 -23 -139 58 -41 30 -113 42 -149 24 -36 -17
-64 -57 -67 -92 -3 -47 21 -42 43 8 13 31 27 47 43 51 40 10 103 -13 152 -55
25 -22 57 -43 70 -46 33 -8 88 21 155 83 77 70 91 69 167 -11 90 -95 125 -98
223 -16 61 50 107 72 152 74 31 0 45 -6 80 -41 77 -75 119 -77 228 -13 97 58
111 59 173 16 83 -57 100 -57 221 4 115 58 122 58 186 5 24 -20 56 -36 81 -40
38 -7 52 -2 135 41 115 59 144 61 216 12 29 -20 64 -41 77 -48 36 -19 102 -7
183 33 88 43 157 61 203 54 19 -3 63 -23 97 -44 56 -34 68 -38 127 -37 51 0
78 7 119 27 28 15 52 34 52 42 0 21 -23 19 -70 -5 -22 -11 -60 -23 -83 -26
-45 -6 -64 0 -177 62 -73 40 -175 26 -290 -39 -79 -45 -140 -44 -199 2 -39 31
-101 60 -126 60 -5 0 -28 -6 -50 -13z"/>
</g>
</svg>
